<?xml version="1.0" encoding="UTF-8"?>
<svg version="1.1" xmlns="http://www.w3.org/2000/svg" width="1024" height="1024">
<path d="M0 0 C337.92 0 675.84 0 1024 0 C1024 337.92 1024 675.84 1024 1024 C686.08 1024 348.16 1024 0 1024 C0 686.08 0 348.16 0 0 Z " fill="#121212" transform="translate(0,0)"/>
<path d="M0 0 C0.99 0.66 1.98 1.32 3 2 C3 2.66 3 3.32 3 4 C3.58652344 4.26941406 4.17304688 4.53882813 4.77734375 4.81640625 C15.27372799 10.40586921 25.39844624 22.26000265 32 32 C32.99 33.4540625 32.99 33.4540625 34 34.9375 C34.99 36.4534375 34.99 36.4534375 36 38 C36.46277344 38.66644531 36.92554688 39.33289063 37.40234375 40.01953125 C47 53.96421756 47 53.96421756 47 60 C47.66 60 48.32 60 49 60 C49 60.99 49 61.98 49 63 C49.66 63 50.32 63 51 63 C51.804375 64.6396875 51.804375 64.6396875 52.625 66.3125 C54.72477872 70.51205744 56.96561266 74.62381163 59.2265625 78.73828125 C61.37155652 82.68336937 63.46788384 86.65300313 65.5625 90.625 C69.00754023 97.15471009 69.00754023 97.15471009 72.5625 103.625 C74.81427718 107.654496 77.04512408 111.69466407 79.25 115.75 C79.78089233 116.7083374 79.78089233 116.7083374 80.32250977 117.68603516 C82.16958413 121.10395232 83.49826612 124.13369776 84 128 C84.66 128 85.32 128 86 128 C86 129.32 86 130.64 86 132 C86.66 132 87.32 132 88 132 C88.67408308 133.26691507 89.33900497 134.53870749 90 135.8125 C90.37125 136.52019531 90.7425 137.22789062 91.125 137.95703125 C92 140 92 140 92 143 C92.66 143 93.32 143 94 143 C95.9174554 145.75113167 97.28524954 148.60403677 98.5625 151.6875 C99.76210668 155.00688437 99.76210668 155.00688437 102 157 C102.165 157.680625 102.33 158.36125 102.5 159.0625 C102.665 159.701875 102.83 160.34125 103 161 C103.66 161.33 104.32 161.66 105 162 C105.625 165.0625 105.625 165.0625 106 168 C106.66 168 107.32 168 108 168 C108.44730469 168.90621094 108.89460938 169.81242188 109.35546875 170.74609375 C109.96566317 171.97680193 110.57637557 173.20725337 111.1875 174.4375 C111.50340088 175.07405518 111.81930176 175.71061035 112.14477539 176.36645508 C114.33313624 180.74594615 116.64919166 185.0209879 119.15234375 189.23046875 C120 191 120 191 120 194 C120.66 194 121.32 194 122 194 C122.42410156 194.79921875 122.84820312 195.5984375 123.28515625 196.421875 C126.23800499 201.95116539 129.22360713 207.42885917 132.4375 212.8125 C135.14024149 217.38729628 137.54664761 222.04195195 139.875 226.8125 C142.53164949 232.24949962 145.39220654 237.47075114 148.5625 242.625 C152.82600498 249.56025287 156.44468147 256.6776318 160 264 C161.37863451 266.67350389 162.75894055 269.34588304 164.15234375 272.01171875 C165 274 165 274 165 277 C165.66 277 166.32 277 167 277 C167.33 278.98 167.66 280.96 168 283 C168.66 283 169.32 283 170 283 C170.44730469 284.09957031 170.89460938 285.19914062 171.35546875 286.33203125 C175.42159829 296.29847372 175.42159829 296.29847372 179.8125 306.125 C181.61934746 310.02119876 182.88162981 313.84605359 184 318 C184.97940398 320.34205301 185.98034573 322.67518826 187 325 C188.97682148 329.7659013 190.37216524 334.40394497 191.3984375 339.45703125 C192.11693933 342.49433445 193.0871847 345.41046249 194.0625 348.375 C195.92735836 354.26074255 196.7532759 359.8442338 197 366 C197.66 366 198.32 366 199 366 C201.65414284 381.41930599 204.0921277 396.58731467 200 412 C199.81308594 412.74765625 199.62617187 413.4953125 199.43359375 414.265625 C199.29050781 414.83796875 199.14742187 415.4103125 199 416 C198.34 416 197.68 416 197 416 C196.896875 416.53625 196.79375 417.0725 196.6875 417.625 C193.13447694 429.89907965 184.57426352 436.10944332 174.33203125 442.72265625 C171.6664806 444.18268148 169.99327743 444.25656664 167 444 C167 444.66 167 445.32 167 446 C162.97930575 446.08765069 158.9588599 446.14061018 154.9375 446.1875 C153.2369043 446.22520508 153.2369043 446.22520508 151.50195312 446.26367188 C145.16142775 446.31912837 140.56976414 446.1040978 135 443 C134.22914063 442.57460938 133.45828125 442.14921875 132.6640625 441.7109375 C124.333782 436.25316752 117.54082535 429.91347197 113 421 C112.278125 419.96875 111.55625 418.9375 110.8125 417.875 C105.2136505 408.99406631 106.92339659 393.08434727 108.68359375 383.13671875 C112.45107262 371.08391289 120.51184292 360.92708991 131.4375 354.625 C136.241879 352.15571024 140.68260691 350.87170379 146 350 C145.71125 348.87980469 145.4225 347.75960938 145.125 346.60546875 C144.74981309 345.13286011 144.37482335 343.66020122 144 342.1875 C143.71382813 341.08051758 143.71382813 341.08051758 143.421875 339.95117188 C142.64737086 336.89464659 142 334.16626522 142 331 C141.34 331 140.68 331 140 331 C139.58105469 329.84113281 139.16210938 328.68226563 138.73046875 327.48828125 C133.41667695 313.3502992 125.76836213 301.02786442 115.6328125 289.82421875 C114.5965019 288.66642677 113.58719582 287.48341172 112.6171875 286.26953125 C108.13283005 280.67049066 102.64796654 276.38050948 97 272 C96.41186523 271.52433594 95.82373047 271.04867188 95.21777344 270.55859375 C90.14152489 266.56082493 84.87499691 263.77822441 79 261.125 C78.12988281 260.7228125 77.25976562 260.320625 76.36328125 259.90625 C74.24590905 258.92900129 72.12501282 257.96049039 70 257 C70 256.34 70 255.68 70 255 C68.84113281 254.87496094 67.68226563 254.74992187 66.48828125 254.62109375 C62.29748567 254.09666826 58.26308248 253.15555253 54.1875 252.0625 C42.90399374 249.04974655 31.91436422 247.64581858 20.25 247 C11.44115963 246.47512986 2.74881735 245.81326689 -5.98046875 244.4921875 C-11.60299305 243.72744088 -17.27813245 243.48614524 -22.9375 243.125 C-33.04178972 242.45685091 -43.0848248 241.53956128 -53.13626099 240.31903076 C-54.53028547 240.14984707 -55.92471453 239.98395991 -57.31954956 239.82159424 C-64.6722827 238.95850091 -71.17786792 237.88325674 -78 235 C-79.61428581 234.63618335 -81.23949967 234.3143331 -82.875 234.0625 C-87.45837798 233.22787253 -91.50408183 231.74498097 -95.7734375 229.90234375 C-97.83943746 229.06507008 -99.82698297 228.48123893 -102 228 C-102 227.34 -102 226.68 -102 226 C-102.9075 225.979375 -103.815 225.95875 -104.75 225.9375 C-109.75627537 225.2309692 -113.63017246 222.49839437 -117.875 219.8984375 C-120.78626524 218.12984387 -123.73494709 216.52040278 -126.75 214.9375 C-131.43590245 212.40071972 -136.11787828 209.69302123 -140 206 C-140 205.34 -140 204.68 -140 204 C-140.87205078 203.60361328 -140.87205078 203.60361328 -141.76171875 203.19921875 C-145.67828177 201.10081587 -148.74698996 197.99424788 -152 195 C-152.556875 194.49726562 -153.11375 193.99453125 -153.6875 193.4765625 C-165.6487444 182.14788391 -177.3563804 166.12341547 -184 151 C-184 150.01 -184 149.02 -184 148 C-184.66 148 -185.32 148 -186 148 C-186.30292969 147.20078125 -186.60585937 146.4015625 -186.91796875 145.578125 C-189.48104443 138.85892353 -192.15010648 132.22376149 -195.08203125 125.65625 C-196.02749609 122.92043684 -196.1820107 120.87056868 -196 118 C-196.66 118 -197.32 118 -198 118 C-199.901312 112.00798642 -201.57387634 105.9656507 -203.125 99.875 C-203.29547852 99.21886719 -203.46595703 98.56273437 -203.64160156 97.88671875 C-204.50388485 94.45129986 -205.15158163 91.09160698 -205.5546875 87.5703125 C-205.60514668 84.19013559 -205.60514668 84.19013559 -207 83 C-207.41689751 81.14852334 -207.78042625 79.28497571 -208.12109375 77.41796875 C-208.33443359 76.25716797 -208.54777344 75.09636719 -208.76757812 73.90039062 C-208.98865234 72.67513672 -209.20972656 71.44988281 -209.4375 70.1875 C-209.65470703 69.00478516 -209.87191406 67.82207031 -210.09570312 66.60351562 C-214.05603835 44.92276153 -214.05603835 44.92276153 -215.0625 34.375 C-215.14556396 33.53106689 -215.22862793 32.68713379 -215.31420898 31.81762695 C-215.93983526 25.21994575 -216.36811904 18.62017737 -216.65844727 11.99951172 C-216.86026302 7.59879278 -217.31283841 3.34445137 -218 -1 C-213.14350343 -3.61503661 -208.24539797 -5.37337833 -203 -7 C-201.741875 -7.391875 -200.48375 -7.78375 -199.1875 -8.1875 C-196 -9 -196 -9 -192 -9 C-192 -9.66 -192 -10.32 -192 -11 C-190.4188708 -11.50692692 -188.83498617 -12.00526443 -187.25 -12.5 C-186.36828125 -12.7784375 -185.4865625 -13.056875 -184.578125 -13.34375 C-182 -14 -182 -14 -178 -14 C-178 -14.66 -178 -15.32 -178 -16 C-177.28972656 -16.13277344 -176.57945312 -16.26554687 -175.84765625 -16.40234375 C-174.92855469 -16.57894531 -174.00945312 -16.75554687 -173.0625 -16.9375 C-172.14597656 -17.11152344 -171.22945312 -17.28554688 -170.28515625 -17.46484375 C-168.04710156 -17.77714988 -168.04710156 -17.77714988 -167 -19 C-162.98680884 -19.83974212 -158.92414263 -20.42161221 -154.875 -21.0625 C-153.74578125 -21.24876953 -152.6165625 -21.43503906 -151.453125 -21.62695312 C-145.90796471 -22.51326973 -140.61702725 -23.2523592 -135 -23 C-135 -23.66 -135 -24.32 -135 -25 C-134.40574219 -25.05534912 -133.81148438 -25.11069824 -133.19921875 -25.16772461 C-130.46602411 -25.42303177 -127.73301279 -25.6802538 -125 -25.9375 C-124.06542969 -26.02451172 -123.13085938 -26.11152344 -122.16796875 -26.20117188 C-118.15668648 -26.57985936 -114.17575 -26.97442982 -110.1875 -27.5546875 C-71.10559312 -32.57397203 -32.17933075 -21.99183253 0 0 Z " fill="#FCFCFC" transform="translate(357,437)"/>
<path d="M0 0 C2.23298039 0.87824108 3.47487271 1.8347338 5.19921875 3.49267578 C5.77712158 4.04020508 6.35502441 4.58773437 6.95043945 5.15185547 C7.55331787 5.73612305 8.15619629 6.32039063 8.77734375 6.92236328 C10.03561889 8.11855941 11.29472709 9.31387989 12.5546875 10.50830078 C13.45743408 11.3682666 13.45743408 11.3682666 14.37841797 12.24560547 C16.31794718 14.07084202 18.31322286 15.81961779 20.33984375 17.54736328 C24.11357387 20.79244587 27.57839135 24.31268834 31.046875 27.87939453 C33.07669652 29.96053395 33.07669652 29.96053395 36.02734375 31.79736328 C36.02734375 32.45736328 36.02734375 33.11736328 36.02734375 33.79736328 C37.01734375 34.12736328 38.00734375 34.45736328 39.02734375 34.79736328 C40.4296875 36.22314453 40.4296875 36.22314453 41.96484375 38.10986328 C45.14579865 41.87162948 48.52142354 45.34410245 52.02734375 48.79736328 C56.57892631 53.2977493 60.88337395 57.91599535 65.02734375 62.79736328 C66.1106262 64.00574223 67.19396169 65.21407364 68.27734375 66.42236328 C73.45069298 72.33807652 78.22836585 78.57760172 83.02734375 84.79736328 C83.45934082 85.35601074 83.89133789 85.9146582 84.33642578 86.49023438 C88.65483921 92.09327098 92.64213885 97.5911543 96.02734375 103.79736328 C97.18780596 105.5930548 98.35510917 107.38433458 99.52734375 109.17236328 C107.02734375 120.8820407 107.02734375 120.8820407 107.02734375 126.79736328 C107.68734375 126.79736328 108.34734375 126.79736328 109.02734375 126.79736328 C111.99091215 133.8337687 114.49349134 140.99237199 116.859375 148.24658203 C117.7894945 151.07426973 118.77174051 153.87139037 119.77734375 156.67236328 C120.97753049 160.25280864 121.46008151 163.67139813 121.75982666 167.42730713 C122.01609757 169.69772827 122.47400193 171.78045163 123.03808594 173.99169922 C124.12570672 178.76845519 124.31739303 183.30373945 124.29296875 188.18798828 C124.2948822 189.05445984 124.29679565 189.9209314 124.29876709 190.81365967 C124.30011909 192.63554171 124.29649205 194.45743372 124.28808594 196.27929688 C124.27742498 199.02643189 124.28798795 201.7729052 124.30078125 204.52001953 C124.31175255 217.10673387 123.31421314 228.94086246 119.90234375 241.10986328 C119.72058594 241.76664063 119.53882813 242.42341797 119.3515625 243.10009766 C118.91675371 244.66769778 118.47311258 246.23284451 118.02734375 247.79736328 C117.36734375 247.79736328 116.70734375 247.79736328 116.02734375 247.79736328 C115.98867188 248.63267578 115.98867188 248.63267578 115.94921875 249.48486328 C115.56527847 254.65060521 114.51118008 258.4057839 112.015625 262.93408203 C110.67969978 265.4528027 109.84465054 268.07300732 109.02734375 270.79736328 C108.36734375 270.79736328 107.70734375 270.79736328 107.02734375 270.79736328 C106.93453125 271.49603516 106.84171875 272.19470703 106.74609375 272.91455078 C105.88310921 276.37586922 104.38607761 278.88287635 102.52734375 281.92236328 C99.92127483 286.19418736 99.92127483 286.19418736 98.02734375 290.79736328 C97.36734375 290.79736328 96.70734375 290.79736328 96.02734375 290.79736328 C95.96546875 291.45736328 95.90359375 292.11736328 95.83984375 292.79736328 C94.90085602 296.26439491 93.32645524 298.61572252 91.37109375 301.59423828 C89.2007906 305.152526 87.62006548 308.9534762 86.02734375 312.79736328 C85.36734375 312.79736328 84.70734375 312.79736328 84.02734375 312.79736328 C83.764375 313.48443359 83.50140625 314.17150391 83.23046875 314.87939453 C79.35354379 324.2821963 74.39397092 333.17650474 69.02734375 341.79736328 C65.53067726 347.47052627 62.30261299 353.15228885 59.38671875 359.14501953 C57.30006396 363.21639482 54.93734795 367.11755586 52.578125 371.03564453 C51.1475236 373.58334023 50.06417356 376.07172335 49.02734375 378.79736328 C48.04252353 380.80488143 47.04581861 382.80670787 46.02734375 384.79736328 C45.36734375 384.79736328 44.70734375 384.79736328 44.02734375 384.79736328 C43.805625 385.59787109 43.58390625 386.39837891 43.35546875 387.22314453 C41.65210458 391.8071981 39.27498849 395.79357595 36.77734375 399.98486328 C35.78149854 401.67825457 34.78670043 403.37226209 33.79296875 405.06689453 C33.07657227 406.28626709 33.07657227 406.28626709 32.34570312 407.53027344 C30.23059063 411.16748355 28.22858077 414.85968179 26.24609375 418.57080078 C25.34429532 420.21831715 24.39219248 421.83851924 23.4140625 423.44189453 C22.13176084 425.62000129 21.48389536 427.3319846 21.02734375 429.79736328 C20.36734375 429.79736328 19.70734375 429.79736328 19.02734375 429.79736328 C18.82109375 430.76673828 18.61484375 431.73611328 18.40234375 432.73486328 C17.22934368 436.89063498 15.01724684 440.00110447 12.55859375 443.50830078 C10.36159412 446.79259105 8.71457643 450.22821723 7.02734375 453.79736328 C6.36734375 453.79736328 5.70734375 453.79736328 5.02734375 453.79736328 C4.87265625 454.88017578 4.87265625 454.88017578 4.71484375 455.98486328 C3.96747443 459.04228321 2.74689186 461.18065963 1.02734375 463.79736328 C-2.62950268 462.57841447 -2.91581953 461.68726544 -4.78515625 458.42236328 C-5.56632812 457.06884766 -5.56632812 457.06884766 -6.36328125 455.68798828 C-8.45225489 451.93594824 -10.50091148 448.16314448 -12.5390625 444.38330078 C-13.78551452 442.13493229 -15.08933028 439.96295345 -16.47265625 437.79736328 C-18.98120496 433.86222776 -21.20452512 429.79715391 -23.4140625 425.68798828 C-24.49099255 423.6906744 -25.58315472 421.70152549 -26.6875 419.71923828 C-27.23535156 418.73439453 -27.78320312 417.74955078 -28.34765625 416.73486328 C-28.85039062 415.83638672 -29.353125 414.93791016 -29.87109375 414.01220703 C-30.97265625 411.79736328 -30.97265625 411.79736328 -30.97265625 409.79736328 C-31.63265625 409.79736328 -32.29265625 409.79736328 -32.97265625 409.79736328 C-32.97265625 408.47736328 -32.97265625 407.15736328 -32.97265625 405.79736328 C-33.63265625 405.79736328 -34.29265625 405.79736328 -34.97265625 405.79736328 C-35.46765625 404.76611328 -35.96265625 403.73486328 -36.47265625 402.67236328 C-38.42706033 398.74974307 -40.58532662 394.9606386 -42.78515625 391.17236328 C-45.55737227 386.39523527 -48.11509245 381.57535455 -50.53515625 376.60986328 C-53.12625945 371.32754607 -56.03549627 366.4557822 -59.26171875 361.54345703 C-66.97265625 349.16722629 -66.97265625 349.16722629 -66.97265625 344.79736328 C-67.63265625 344.79736328 -68.29265625 344.79736328 -68.97265625 344.79736328 C-69.64673933 343.53044821 -70.31166122 342.2586558 -70.97265625 340.98486328 C-71.34390625 340.27716797 -71.71515625 339.56947266 -72.09765625 338.84033203 C-72.97265625 336.79736328 -72.97265625 336.79736328 -72.97265625 333.79736328 C-73.63265625 333.79736328 -74.29265625 333.79736328 -74.97265625 333.79736328 C-75.50375 332.71197266 -76.03484375 331.62658203 -76.58203125 330.50830078 C-77.29535535 329.06288089 -78.00890926 327.61757439 -78.72265625 326.17236328 C-79.07070313 325.45951172 -79.41875 324.74666016 -79.77734375 324.01220703 C-81.42908068 320.67814544 -83.09973669 317.51083191 -85.23828125 314.46142578 C-86.97265625 311.79736328 -86.97265625 311.79736328 -86.97265625 308.79736328 C-87.63265625 308.79736328 -88.29265625 308.79736328 -88.97265625 308.79736328 C-91.97265625 303.04736328 -91.97265625 303.04736328 -91.97265625 300.79736328 C-92.63265625 300.79736328 -93.29265625 300.79736328 -93.97265625 300.79736328 C-94.64385174 299.34110878 -95.30947432 297.88228461 -95.97265625 296.42236328 C-96.34390625 295.61025391 -96.71515625 294.79814453 -97.09765625 293.96142578 C-97.97265625 291.79736328 -97.97265625 291.79736328 -97.97265625 289.79736328 C-98.63265625 289.79736328 -99.29265625 289.79736328 -99.97265625 289.79736328 C-100.64673933 288.53044821 -101.31166122 287.2586558 -101.97265625 285.98486328 C-102.34390625 285.27716797 -102.71515625 284.56947266 -103.09765625 283.84033203 C-103.97265625 281.79736328 -103.97265625 281.79736328 -103.97265625 278.79736328 C-104.63265625 278.79736328 -105.29265625 278.79736328 -105.97265625 278.79736328 C-106.30265625 276.81736328 -106.63265625 274.83736328 -106.97265625 272.79736328 C-107.63265625 272.79736328 -108.29265625 272.79736328 -108.97265625 272.79736328 C-108.97265625 271.80736328 -108.97265625 270.81736328 -108.97265625 269.79736328 C-109.63265625 269.79736328 -110.29265625 269.79736328 -110.97265625 269.79736328 C-111.22789062 268.76289062 -111.22789062 268.76289062 -111.48828125 267.70751953 C-112.72084377 262.92806168 -114.02217766 258.44342362 -116.16015625 253.98486328 C-117.83378336 250.44670103 -118.37969971 247.76603697 -117.97265625 243.79736328 C-118.63265625 243.79736328 -119.29265625 243.79736328 -119.97265625 243.79736328 C-121.07494321 239.38821545 -121.04920161 235.31353927 -120.97265625 230.79736328 C-121.63265625 230.79736328 -122.29265625 230.79736328 -122.97265625 230.79736328 C-124.54770343 220.23934485 -125.29373776 209.91522433 -125.23339844 199.2409668 C-125.22257826 196.96848407 -125.23342702 194.69677705 -125.24609375 192.42431641 C-125.25571685 182.07168491 -124.32791463 172.63945452 -120.97265625 162.79736328 C-120.63338678 160.46488568 -120.30025559 158.13150857 -119.97265625 155.79736328 C-119.07188265 152.41946227 -118.0779073 149.11311642 -116.97265625 145.79736328 C-116.31265625 145.79736328 -115.65265625 145.79736328 -114.97265625 145.79736328 C-115.0190625 145.06775391 -115.06546875 144.33814453 -115.11328125 143.58642578 C-114.95605704 140.46814571 -114.22736206 138.88264663 -112.72265625 136.17236328 C-109.9261038 130.88201905 -107.89782341 125.45455839 -105.97265625 119.79736328 C-105.31265625 119.79736328 -104.65265625 119.79736328 -103.97265625 119.79736328 C-103.64265625 118.14736328 -103.31265625 116.49736328 -102.97265625 114.79736328 C-102.31265625 114.79736328 -101.65265625 114.79736328 -100.97265625 114.79736328 C-100.89917969 113.95173828 -100.82570313 113.10611328 -100.75 112.23486328 C-99.81743779 108.11097007 -97.92820412 105.19692529 -95.53515625 101.79736328 C-95.0855957 101.14364746 -94.63603516 100.48993164 -94.17285156 99.81640625 C-93.23709921 98.46109989 -92.29613665 97.10937661 -91.35009766 95.76123047 C-90.08026046 93.95077843 -88.82742245 92.12982817 -87.578125 90.30517578 C-75.8778116 73.39226184 -62.28087793 57.66902052 -47.49609375 43.38330078 C-45.75967038 41.66895235 -45.75967038 41.66895235 -43.97265625 38.79736328 C-43.31265625 38.79736328 -42.65265625 38.79736328 -41.97265625 38.79736328 C-41.64265625 37.80736328 -41.31265625 36.81736328 -40.97265625 35.79736328 C-39.51171875 34.35986328 -39.51171875 34.35986328 -37.59765625 32.79736328 C-34.04085252 29.78874077 -30.74410696 26.61437737 -27.47265625 23.29736328 C-23.82431808 19.60366168 -20.11556467 16.05472692 -16.1484375 12.70361328 C-14.36332736 11.13963887 -12.65619467 9.54193508 -10.953125 7.89111328 C-10.42001709 7.38128906 -9.88690918 6.87146484 -9.33764648 6.34619141 C-8.27676741 5.32877389 -7.22511147 4.30163407 -6.18383789 3.26416016 C-2.48291416 -0.25505183 -2.48291416 -0.25505183 0 0 Z " fill="#FDFDFD" transform="translate(511.97265625,110.20263671875)"/>
<path d="M0 0 C1.00264893 0.2052832 2.00529785 0.41056641 3.03833008 0.62207031 C20.42498991 4.29998991 20.42498991 4.29998991 22.6875 6.5625 C26.01773673 7.18715457 29.34986605 7.75756793 32.69726562 8.28125 C36.83585857 8.99310313 39.49848491 9.84484049 42.6875 12.5625 C45.83868325 13.28295367 45.83868325 13.28295367 48.6875 13.5625 C48.6875 14.2225 48.6875 14.8825 48.6875 15.5625 C50.4509375 15.748125 50.4509375 15.748125 52.25 15.9375 C58.63112008 16.74780096 63.9741545 18.63381029 69.6875 21.5625 C69.33534777 36.94240796 68.30618458 52.01580227 66.03125 67.23535156 C65.71584068 69.3706368 65.43452836 71.50808555 65.15625 73.6484375 C64.6875 76.5625 64.6875 76.5625 63.6875 77.5625 C63.31881932 79.40964824 63.00476937 81.26777079 62.71484375 83.12890625 C62.44897461 84.8159668 62.44897461 84.8159668 62.17773438 86.53710938 C61.99533203 87.72111328 61.81292969 88.90511719 61.625 90.125 C61.43873047 91.31287109 61.25246094 92.50074219 61.06054688 93.72460938 C60.59921698 96.67002331 60.14170899 99.61598096 59.6875 102.5625 C59.0275 102.5625 58.3675 102.5625 57.6875 102.5625 C57.63851563 103.49191406 57.58953125 104.42132812 57.5390625 105.37890625 C56.65700123 119.96333304 56.65700123 119.96333304 53.69140625 125.3828125 C52.48225901 128.00812052 52.03710836 130.46484984 51.5625 133.3125 C51.39492188 134.29734375 51.22734375 135.2821875 51.0546875 136.296875 C50.93351562 137.04453125 50.81234375 137.7921875 50.6875 138.5625 C50.0275 138.5625 49.3675 138.5625 48.6875 138.5625 C48.5946875 140.17125 48.5946875 140.17125 48.5 141.8125 C47.75655089 147.82381705 45.10129492 153.0655983 42.6875 158.5625 C42.01384287 160.26808884 41.34669966 161.97627149 40.6875 163.6875 C38.66104497 168.80346844 36.22141885 173.68159073 33.6875 178.5625 C33.0275 178.5625 32.3675 178.5625 31.6875 178.5625 C31.57535156 179.12453125 31.46320313 179.6865625 31.34765625 180.265625 C30.59692661 182.87763108 29.47582624 184.95721322 28.125 187.3125 C27.66996094 188.11171875 27.21492188 188.9109375 26.74609375 189.734375 C26.39675781 190.33765625 26.04742188 190.9409375 25.6875 191.5625 C25.0275 191.5625 24.3675 191.5625 23.6875 191.5625 C23.43742187 192.284375 23.18734375 193.00625 22.9296875 193.75 C19.45878871 201.60863876 12.21008165 208.18830973 6.4375 214.5 C5.94266113 215.04333984 5.44782227 215.58667969 4.93798828 216.14648438 C2.05579492 219.25619384 -0.86019092 222.09231333 -4.3125 224.5625 C-4.9725 224.5625 -5.6325 224.5625 -6.3125 224.5625 C-6.3125 225.2225 -6.3125 225.8825 -6.3125 226.5625 C-7.6325 226.8925 -8.9525 227.2225 -10.3125 227.5625 C-10.3125 228.2225 -10.3125 228.8825 -10.3125 229.5625 C-11.9625 230.2225 -13.6125 230.8825 -15.3125 231.5625 C-15.3125 232.2225 -15.3125 232.8825 -15.3125 233.5625 C-21.50452217 237.7862677 -28.31021422 241.17899888 -35.05859375 244.421875 C-37.37058899 245.55145232 -37.37058899 245.55145232 -39.69140625 247.03515625 C-42.64955024 248.75890334 -45.62239882 250.00899101 -48.8125 251.25 C-49.9159375 251.68699219 -51.019375 252.12398437 -52.15625 252.57421875 C-55.10614014 253.49788484 -57.25431757 253.77360588 -60.3125 253.5625 C-60.3125 254.2225 -60.3125 254.8825 -60.3125 255.5625 C-66.81672293 257.57115708 -72.4906317 258.94864349 -79.3125 258.5625 C-79.3125 259.2225 -79.3125 259.8825 -79.3125 260.5625 C-82.6125 260.5625 -85.9125 260.5625 -89.3125 260.5625 C-89.3125 261.2225 -89.3125 261.8825 -89.3125 262.5625 C-95.88055066 263.63609512 -102.46930136 264.05318929 -109.10546875 264.5 C-111.61653961 264.67443374 -114.12760723 264.84891431 -116.63867188 265.0234375 C-120.58219843 265.29443639 -124.52580193 265.56425832 -128.46948242 265.83300781 C-132.28585897 266.09399719 -136.10191831 266.35929143 -139.91796875 266.625 C-141.10029587 266.70419678 -142.28262299 266.78339355 -143.5007782 266.86499023 C-145.14817741 266.98015991 -145.14817741 266.98015991 -146.82885742 267.09765625 C-147.79369553 267.163479 -148.75853363 267.22930176 -149.75260925 267.29711914 C-152.04206694 267.53446452 -154.09309822 267.98077651 -156.3125 268.5625 C-158.77575271 268.77996671 -161.22381541 268.95851819 -163.69140625 269.09765625 C-164.7717791 269.16239388 -164.7717791 269.16239388 -165.87397766 269.22843933 C-168.20738275 269.36592154 -170.54108773 269.4964292 -172.875 269.625 C-173.66739075 269.66919067 -174.45978149 269.71338135 -175.27618408 269.75891113 C-226.02454202 272.55773734 -226.02454202 272.55773734 -244.75 256.1875 C-246.29550497 254.67056739 -247.81685771 253.12861758 -249.3125 251.5625 C-250.10269531 250.7684375 -250.89289062 249.974375 -251.70703125 249.15625 C-257.13866093 243.46339766 -260.84349665 237.59074089 -264.3125 230.5625 C-264.79976562 229.66917969 -265.28703125 228.77585937 -265.7890625 227.85546875 C-266.48128906 226.56576172 -266.48128906 226.56576172 -267.1875 225.25 C-267.59742188 224.49074219 -268.00734375 223.73148438 -268.4296875 222.94921875 C-269.82975621 219.16407725 -270.10686392 216.29036669 -268.3828125 212.5402832 C-267.10971256 210.27346368 -265.76462413 208.07223651 -264.375 205.875 C-263.44694512 204.37249574 -262.52106883 202.86864305 -261.59765625 201.36328125 C-261.18394775 200.70497314 -260.77023926 200.04666504 -260.34399414 199.3684082 C-259.16070994 197.43368068 -259.16070994 197.43368068 -258.3125 194.5625 C-257.6525 194.5625 -256.9925 194.5625 -256.3125 194.5625 C-256.20276855 193.84215576 -256.09303711 193.12181152 -255.97998047 192.37963867 C-255.26295216 189.35338056 -254.17461857 187.18276608 -252.6328125 184.48828125 C-250.43624024 180.57838262 -248.29661479 176.65461462 -246.2421875 172.66796875 C-245.73816406 171.69279297 -245.23414063 170.71761719 -244.71484375 169.71289062 C-243.68701955 167.71901683 -242.66101006 165.72420663 -241.63671875 163.72851562 C-239.08692845 158.8026354 -236.42732367 154.15868355 -233.3125 149.5625 C-232.17450984 147.37140472 -231.0713178 145.16195461 -230 142.9375 C-227.76791837 138.36704714 -225.42051932 133.93459531 -222.8125 129.5625 C-219.57372703 124.12339472 -216.74768615 118.53127025 -213.95703125 112.85546875 C-211.87248469 108.6814242 -209.6349491 104.6080565 -207.3125 100.5625 C-206.6525 100.5625 -205.9925 100.5625 -205.3125 100.5625 C-205.20035156 99.84964844 -205.08820313 99.13679687 -204.97265625 98.40234375 C-201.39035183 82.99207564 -189.29381076 67.48519264 -180.3125 54.5625 C-179.77496094 53.77617187 -179.23742187 52.98984375 -178.68359375 52.1796875 C-174.65117801 46.64169617 -169.80851644 41.85775582 -165 37 C-163.92177979 35.90764038 -163.92177979 35.90764038 -162.82177734 34.79321289 C-162.14195801 34.11766357 -161.46213867 33.44211426 -160.76171875 32.74609375 C-160.14643311 32.13306396 -159.53114746 31.52003418 -158.8972168 30.88842773 C-157.3125 29.5625 -157.3125 29.5625 -155.3125 29.5625 C-155.3125 28.9025 -155.3125 28.2425 -155.3125 27.5625 C-152.18496635 24.96102615 -148.6980026 22.81246619 -145.3125 20.5625 C-144.4457666 19.973479 -144.4457666 19.973479 -143.56152344 19.37255859 C-141.73605201 18.13255103 -139.90080517 16.90838346 -138.0625 15.6875 C-137.1960083 15.09763306 -137.1960083 15.09763306 -136.31201172 14.49584961 C-132.6592678 12.10800052 -129.65627148 10.97055126 -125.3125 10.5625 C-125.3125 9.9025 -125.3125 9.2425 -125.3125 8.5625 C-109.12442699 -0.00542623 -91.68515124 -3.16171844 -73.58642578 -4.26464844 C-71.591075 -4.41632423 -69.60536087 -4.68525218 -67.625 -4.97265625 C-45.64799442 -8.05669359 -21.51253753 -4.4069516 0 0 Z " fill="#FCFCFC" transform="translate(814.3125,414.4375)"/>
<path d="M0 0 C1.83473877 0.02187378 1.83473877 0.02187378 3.70654297 0.04418945 C4.36202118 0.04747757 5.01749939 0.05076569 5.69284058 0.05415344 C7.07299793 0.06454517 8.45311258 0.08444618 9.83300781 0.11328125 C11.94864835 0.15746899 14.0631537 0.17473622 16.17919922 0.18676758 C26.46293453 0.28957273 26.46293453 0.28957273 28.82373047 1.4699707 C30.52736868 1.69619152 32.23701747 1.87885543 33.94873047 2.0324707 C34.85880859 2.11625977 35.76888672 2.20004883 36.70654297 2.28637695 C37.40521484 2.34696289 38.10388672 2.40754883 38.82373047 2.4699707 C38.82373047 2.7999707 38.82373047 3.1299707 38.82373047 3.4699707 C23.64373047 3.7999707 8.46373047 4.1299707 -7.17626953 4.4699707 C-3.17626953 0.4699707 -3.17626953 0.4699707 0 0 Z " fill="#1D1D1D" transform="translate(254.17626953125,405.530029296875)"/>
<path d="M0 0 C0.99457718 0.00212242 0.99457718 0.00212242 2.00924683 0.00428772 C4.12860613 0.00988871 6.24786009 0.02244125 8.3671875 0.03515625 C9.80338389 0.04017113 11.23958194 0.04473406 12.67578125 0.04882812 C16.19795095 0.05985843 19.72005895 0.07712366 23.2421875 0.09765625 C23.2421875 0.42765625 23.2421875 0.75765625 23.2421875 1.09765625 C18.58681394 2.01857906 14.09533317 2.21971622 9.3671875 2.16015625 C8.33464844 2.15338867 8.33464844 2.15338867 7.28125 2.14648438 C5.60152415 2.13481961 3.92184375 2.11688896 2.2421875 2.09765625 C2.2421875 2.75765625 2.2421875 3.41765625 2.2421875 4.09765625 C-1.3878125 4.42765625 -5.0178125 4.75765625 -8.7578125 5.09765625 C-8.7578125 3.77765625 -8.7578125 2.45765625 -8.7578125 1.09765625 C-5.8358356 -0.3633322 -3.25887775 -0.01369276 0 0 Z " fill="#494949" transform="translate(219.7578125,409.90234375)"/>
<path d="M0 0 C0.33 0 0.66 0 1 0 C1 12.87 1 25.74 1 39 C1.66 39.33 2.32 39.66 3 40 C1.68 42.97 0.36 45.94 -1 49 C-2.00313092 45.99060723 -2.01071245 44.99224127 -1.59765625 41.9765625 C-0.67254684 33.80649517 -0.63480967 25.58791414 -0.4375 17.375 C-0.39421794 15.68618923 -0.35060089 13.997387 -0.30664062 12.30859375 C-0.20056404 8.20581756 -0.0990236 4.10295223 0 0 Z " fill="#575757" transform="translate(636,294)"/>
<path d="M0 0 C0.33 0 0.66 0 1 0 C1.32188558 11.80247133 0.33262907 23.28000331 -1 35 C-1.33 35 -1.66 35 -2 35 C-2.05880857 31.04173069 -2.09386513 27.08357608 -2.125 23.125 C-2.14175781 22.01640625 -2.15851563 20.9078125 -2.17578125 19.765625 C-2.21604215 12.92127221 -1.66732206 6.64485173 0 0 Z " fill="#070707" transform="translate(386,285)"/>
<path d="M0 0 C0 3 0 3 -2.11132812 5.4519043 C-3.07697101 6.41707201 -4.05087603 7.37401783 -5.03125 8.32421875 C-5.54175903 8.83048294 -6.05226807 9.33674713 -6.57824707 9.85835266 C-8.21193407 11.47523405 -9.85573744 13.08138126 -11.5 14.6875 C-12.6087547 15.78121031 -13.71683647 16.87560326 -14.82421875 17.97070312 C-17.54173139 20.65512158 -20.26836361 23.3299581 -23 26 C-23.66 25.67 -24.32 25.34 -25 25 C-24.44570313 24.45730469 -23.89140625 23.91460937 -23.3203125 23.35546875 C-22.59585937 22.64003906 -21.87140625 21.92460937 -21.125 21.1875 C-20.40570313 20.47980469 -19.68640625 19.77210938 -18.9453125 19.04296875 C-16.84641063 16.95600806 -16.84641063 16.95600806 -15 14 C-14.34 14 -13.68 14 -13 14 C-12.67 13.01 -12.34 12.02 -12 11 C-10.29296875 9.31640625 -10.29296875 9.31640625 -8.1875 7.5625 C-5.33240495 5.14310168 -2.5947338 2.7028477 0 0 Z " fill="#D6D6D6" transform="translate(483,135)"/>
<path d="M0 0 C0.33 1.32 0.66 2.64 1 4 C0.071875 4.12375 0.071875 4.12375 -0.875 4.25 C-3.70749765 5.24970505 -3.69425046 6.34697532 -5 9 C-6.22003719 10.6024771 -7.49535154 12.16383877 -8.8125 13.6875 C-9.47894531 14.47511719 -10.14539063 15.26273438 -10.83203125 16.07421875 C-13.26652842 18.23675407 -14.80329875 18.67084577 -18 19 C-18 19.66 -18 20.32 -18 21 C-18.99 20.67 -19.98 20.34 -21 20 C-20.34 20 -19.68 20 -19 20 C-19 19.34 -19 18.68 -19 18 C-17.3828125 16.66015625 -17.3828125 16.66015625 -15.125 15.0625 C-9.30373755 10.69423946 -4.74911905 5.48280342 0 0 Z " fill="#252525" transform="translate(827,621)"/>
<path d="M0 0 C0.33 0 0.66 0 1 0 C1.19335938 1.19496094 1.38671875 2.38992188 1.5859375 3.62109375 C2.57115927 16.68703341 2.57115927 16.68703341 7 28 C7.04080783 29.99958364 7.04254356 32.00045254 7 34 C6.67 34 6.34 34 6 34 C5.49564306 32.0636296 4.99666126 30.12585854 4.5 28.1875 C4.2215625 27.10855469 3.943125 26.02960937 3.65625 24.91796875 C3 22 3 22 3 19 C2.34 19 1.68 19 1 19 C-0.26582219 15.13276369 -0.1118765 11.26848738 -0.0625 7.25 C-0.05798828 6.55261719 -0.05347656 5.85523438 -0.04882812 5.13671875 C-0.0371002 3.42444197 -0.01916653 1.71220967 0 0 Z " fill="#60605F" transform="translate(145,493)"/>
<path d="M0 0 C0.33 1.32 0.66 2.64 1 4 C1.66 4 2.32 4 3 4 C2.68289063 4.98097656 2.36578125 5.96195313 2.0390625 6.97265625 C0.85431634 11.11926782 0.5634915 15.14539137 0.375 19.4375 C0.33632813 20.16904297 0.29765625 20.90058594 0.2578125 21.65429688 C0.16466016 23.43583532 0.08129714 25.21788122 0 27 C-0.33 27 -0.66 27 -1 27 C-2.51708428 7.99544419 -2.51708428 7.99544419 0 0 Z " fill="#373737" transform="translate(465,813)"/>
<path d="M0 0 C3.23346377 4.85019565 2.56000422 10.28786884 2.75 16 C2.80542969 17.20140625 2.86085937 18.4028125 2.91796875 19.640625 C2.96050781 20.79046875 3.00304687 21.9403125 3.046875 23.125 C3.08651367 24.17945313 3.12615234 25.23390625 3.16699219 26.3203125 C3 29 3 29 1 32 C1 31.01 1 30.02 1 29 C0.34 29 -0.32 29 -1 29 C-0.83701416 28.46084961 -0.67402832 27.92169922 -0.50610352 27.36621094 C0.09281664 24.56604976 0.11226789 22.00450567 0.09765625 19.140625 C0.09443359 18.02558594 0.09121094 16.91054688 0.08789062 15.76171875 C0.07951172 14.60285156 0.07113281 13.44398438 0.0625 12.25 C0.05798828 11.07566406 0.05347656 9.90132813 0.04882812 8.69140625 C0.03705094 5.79421928 0.02060326 2.89713546 0 0 Z " fill="#494949" transform="translate(139,440)"/>
<path d="M0 0 C0.99 0 1.98 0 3 0 C3.33 1.65 3.66 3.3 4 5 C3.34 5 2.68 5 2 5 C1.67 5.99 1.34 6.98 1 8 C0.01 8.33 -0.98 8.66 -2 9 C-2.33 9.66 -2.66 10.32 -3 11 C-3.66 10.67 -4.32 10.34 -5 10 C-3.35 6.7 -1.7 3.4 0 0 Z " fill="#282828" transform="translate(546,513)"/>
<path d="M0 0 C0 0.66 0 1.32 0 2 C-5.03854106 2.83211276 -9.8125662 3.1078534 -14.9375 3.0625 C-15.62134766 3.05798828 -16.30519531 3.05347656 -17.00976562 3.04882812 C-18.67321604 3.0371956 -20.3366205 3.01926694 -22 3 C-22 2.67 -22 2.34 -22 2 C-7.40318907 -0.29612756 -7.40318907 -0.29612756 0 0 Z " fill="#060606" transform="translate(726,677)"/>
<path d="M0 0 C1.66508103 3.33016206 0.09482902 6.29041236 -0.96484375 9.7109375 C-2 12 -2 12 -4.6875 13.625 C-5.450625 13.74875 -6.21375 13.8725 -7 14 C-5.23570801 9.02790438 -2.6060834 4.56561939 0 0 Z " fill="#262626" transform="translate(569,472)"/>
<path d="M0 0 C0.66 1.32 1.32 2.64 2 4 C0 6 0 6 -2.125 7.4375 C-3.053125 8.2109375 -3.053125 8.2109375 -4 9 C-4 9.99 -4 10.98 -4 12 C-7 14.1875 -7 14.1875 -10 16 C-8.39270035 12.59963241 -6.46281671 9.47943574 -4.4375 6.3125 C-3.81746094 5.33925781 -3.19742188 4.36601562 -2.55859375 3.36328125 C-1 1 -1 1 0 0 Z " fill="#CCCCCC" transform="translate(639,462)"/>
<path d="M0 0 C4.36924844 0.48547205 6.07983415 1.78781757 9 5 C9.99 5.66 10.98 6.32 12 7 C11.67 8.32 11.34 9.64 11 11 C7.33333333 7.33333333 3.66666667 3.66666667 0 0 Z " fill="#252525" transform="translate(531,127)"/>
<path d="M0 0 C0.33 0 0.66 0 1 0 C1.33 3.3 1.66 6.6 2 10 C2.33 10 2.66 10 3 10 C3.125 12.375 3.125 12.375 3 15 C2.34 15.66 1.68 16.32 1 17 C0.60235737 18.98821313 0.26224651 20.98944339 0 23 C-0.33 23 -0.66 23 -1 23 C-0.67 15.41 -0.34 7.82 0 0 Z " fill="#363636" transform="translate(883,446)"/>
<path d="M0 0 C1.66666667 1.66666667 3.33333333 3.33333333 5 5 C5.66 5.33 6.32 5.66 7 6 C6.67 7.32 6.34 8.64 6 10 C4.85073734 9.04578192 3.70569459 8.08647955 2.5625 7.125 C1.92441406 6.59132813 1.28632813 6.05765625 0.62890625 5.5078125 C-1 4 -1 4 -2 2 C-1.34 2 -0.68 2 0 2 C0 1.34 0 0.68 0 0 Z " fill="#202020" transform="translate(376,450)"/>
<path d="M0 0 C0.33 0.66 0.66 1.32 1 2 C0.67 2.66 0.34 3.32 0 4 C0.66 4 1.32 4 2 4 C0.54744301 7.82946843 -1.42895561 9.12050295 -5 11 C-4.67 9.35 -4.34 7.7 -4 6 C-3.34 6 -2.68 6 -2 6 C-1.855625 5.195625 -1.71125 4.39125 -1.5625 3.5625 C-1 1 -1 1 0 0 Z " fill="#363636" transform="translate(612,395)"/>
<path d="M0 0 C-1.81309003 3.77727089 -3.9073259 7.37269822 -6 11 C-6.68707555 8.50935112 -7 6.62113708 -7 4 C-6.34 4 -5.68 4 -5 4 C-5 3.34 -5 2.68 -5 2 C-2 0 -2 0 0 0 Z " fill="#1D1D1D" transform="translate(632,472)"/>
<path d="M0 0 C1.1875 1.625 1.1875 1.625 2 4 C0.875 7.1875 0.875 7.1875 -1 10 C-3.1875 10.875 -3.1875 10.875 -5 11 C-3.55049545 7.2089881 -1.84827434 3.6125362 0 0 Z " fill="#343434" transform="translate(595,425)"/>
<path d="M0 0 C0 3 0 3 -1.390625 4.7890625 C-2.31101562 5.69785156 -2.31101562 5.69785156 -3.25 6.625 C-3.85328125 7.23601562 -4.4565625 7.84703125 -5.078125 8.4765625 C-7.09363101 10.0742197 -8.48788161 10.58872398 -11 11 C-7.6189962 6.86378916 -4.33409466 3.18683431 0 0 Z " fill="#D2D2D2" transform="translate(495,124)"/>
<path d="M0 0 C2.52230627 1.26115314 2.88890155 2.37533425 4.125 4.875 C4.47820312 5.57367187 4.83140625 6.27234375 5.1953125 6.9921875 C6 9 6 9 6 12 C5.01 12 4.02 12 3 12 C2.49663233 10.37604003 1.99741024 8.75079459 1.5 7.125 C1.2215625 6.22007812 0.943125 5.31515625 0.65625 4.3828125 C0 2 0 2 0 0 Z " fill="#343434" transform="translate(491,540)"/>
<path d="M0 0 C0.33 0 0.66 0 1 0 C1.19392201 5.52677733 0.7479503 9.75614911 -1 15 C-1.33 15 -1.66 15 -2 15 C-2 11.37 -2 7.74 -2 4 C-1.34 4 -0.68 4 0 4 C0 2.68 0 1.36 0 0 Z " fill="#0A0A0A" transform="translate(880,487)"/>
<path d="M0 0 C1.27351308 2.54702616 0.80191925 3.4282945 0.0625 6.125 C-0.13214844 6.84945313 -0.32679688 7.57390625 -0.52734375 8.3203125 C-0.76130859 9.15175781 -0.76130859 9.15175781 -1 10 C-2.32 10.33 -3.64 10.66 -5 11 C-3.55049545 7.2089881 -1.84827434 3.6125362 0 0 Z " fill="#373838" transform="translate(575,461)"/>
<path d="M0 0 C5.75 1.875 5.75 1.875 8 3 C8 3.66 8 4.32 8 5 C8.66 5 9.32 5 10 5 C9.67 5.99 9.34 6.98 9 8 C6.96166576 6.7260411 4.96147874 5.38938077 3 4 C3 3.34 3 2.68 3 2 C2.01 1.67 1.02 1.34 0 1 C0 0.67 0 0.34 0 0 Z " fill="#2A2A2A" transform="translate(357,437)"/>
<path d="M0 0 C0.66 0.33 1.32 0.66 2 1 C0.59785066 2.36919284 -0.82228473 3.71998709 -2.25 5.0625 C-3.43335938 6.19365234 -3.43335938 6.19365234 -4.640625 7.34765625 C-7 9 -7 9 -9.296875 8.74609375 C-9.85890625 8.49988281 -10.4209375 8.25367188 -11 8 C-10.28972656 7.50628906 -9.57945312 7.01257813 -8.84765625 6.50390625 C-7.92855469 5.86324219 -7.00945313 5.22257812 -6.0625 4.5625 C-5.14597656 3.92441406 -4.22945312 3.28632813 -3.28515625 2.62890625 C-1.13879294 1.1939118 -1.13879294 1.1939118 0 0 Z " fill="#CFCFCF" transform="translate(670,434)"/>
<path d="M0 0 C-8.52198005 5.51422239 -8.52198005 5.51422239 -13.18359375 4.546875 C-14.08271484 4.27617187 -14.08271484 4.27617187 -15 4 C-13.25705322 3.13153169 -11.50531337 2.28069373 -9.75 1.4375 C-8.77546875 0.96183594 -7.8009375 0.48617188 -6.796875 -0.00390625 C-3.90143703 -1.03510273 -2.80033839 -1.11346788 0 0 Z " fill="#B0B0B0" transform="translate(704,419)"/>
<path d="M0 0 C0 0.66 0 1.32 0 2 C-3.31070838 3.00109515 -6.30084769 3.10356134 -9.75 3.0625 C-10.73484375 3.05347656 -11.7196875 3.04445313 -12.734375 3.03515625 C-13.48203125 3.02355469 -14.2296875 3.01195312 -15 3 C-15 2.67 -15 2.34 -15 2 C-9.92523206 0.73694665 -5.27203646 -0.27036084 0 0 Z " fill="#090909" transform="translate(749,406)"/>
<path d="M0 0 C0.33 0 0.66 0 1 0 C1.25 6.625 1.25 6.625 -1 10 C-1.99 9.67 -2.98 9.34 -4 9 C-2.68 6.03 -1.36 3.06 0 0 Z " fill="#3D3D3D" transform="translate(554,853)"/>
<path d="M0 0 C0.33 1.32 0.66 2.64 1 4 C0.071875 4.12375 0.071875 4.12375 -0.875 4.25 C-3.18437567 4.81258459 -3.18437567 4.81258459 -4.25 7.0625 C-4.4975 7.701875 -4.745 8.34125 -5 9 C-5.99 9 -6.98 9 -8 9 C-5.36 6.03 -2.72 3.06 0 0 Z " fill="#3C3C3C" transform="translate(827,621)"/>
<path d="M0 0 C0.66 0.99 1.32 1.98 2 3 C1.67 3.99 1.34 4.98 1 6 C0.67 5.67 0.34 5.34 0 5 C-0.680625 6.2065625 -0.680625 6.2065625 -1.375 7.4375 C-3 10 -3 10 -5 11 C-3.55049545 7.2089881 -1.84827434 3.6125362 0 0 Z " fill="#CECECE" transform="translate(573,578)"/>
<path d="M0 0 C1.4606285 2.64738916 2 3.89448334 2 7 C1.01 7.66 0.02 8.32 -1 9 C-1.99 8.67 -2.98 8.34 -4 8 C-3.34 7.34 -2.68 6.68 -2 6 C-1.28591666 4.01643517 -0.61382258 2.01684563 0 0 Z " fill="#222222" transform="translate(531,540)"/>
<path d="M0 0 C0.33 1.32 0.66 2.64 1 4 C-1.31 5.98 -3.62 7.96 -6 10 C-6.66 9.67 -7.32 9.34 -8 9 C-5.36 6.03 -2.72 3.06 0 0 Z " fill="#C8C8C8" transform="translate(447,172)"/>
<path d="M0 0 C2.94586829 4.41880243 3.0985616 6.67767339 3 12 C0.13700494 9.13700494 0.00578775 7.34147716 -0.0625 3.3125 C-0.041875 2.219375 -0.02125 1.12625 0 0 Z " fill="#191919" transform="translate(881,471)"/>
<path d="M0 0 C0 0.33 0 0.66 0 1 C-4.53701494 2.45184478 -8.18061476 3.23509196 -13 3 C-13 2.34 -13 1.68 -13 1 C-8.59085217 -0.10228696 -4.51617599 -0.07654536 0 0 Z " fill="#060606" transform="translate(210,413)"/>
<path d="M0 0 C1.35439668 2.70879335 1.06501451 5.00933268 1 8 C-0.32 8 -1.64 8 -3 8 C-3.33 9.32 -3.66 10.64 -4 12 C-4.33 11.34 -4.66 10.68 -5 10 C-4.67 9.01 -4.34 8.02 -4 7 C-3.34 7 -2.68 7 -2 7 C-1.34 4.69 -0.68 2.38 0 0 Z " fill="#393939" transform="translate(623,374)"/>
<path d="M0 0 C0.33 0.66 0.66 1.32 1 2 C0.22265625 4.1640625 0.22265625 4.1640625 -0.9375 6.625 C-1.31777344 7.44226563 -1.69804687 8.25953125 -2.08984375 9.1015625 C-2.39019531 9.72804687 -2.69054687 10.35453125 -3 11 C-4.00692101 7.97923697 -4.39261106 6.1408885 -4 3 C-2 1.1875 -2 1.1875 0 0 Z " fill="#666666" transform="translate(402,239)"/>
<path d="M0 0 C0.66 0.99 1.32 1.98 2 3 C0.02 5.64 -1.96 8.28 -4 11 C-4 7.80389448 -3.45328458 6.58282374 -2 3.8125 C-1.62875 3.09707031 -1.2575 2.38164063 -0.875 1.64453125 C-0.441875 0.83048828 -0.441875 0.83048828 0 0 Z " fill="#BCBCBC" transform="translate(593,541)"/>
<path d="M0 0 C1.09570312 0.00902344 2.19140625 0.01804687 3.3203125 0.02734375 C4.16335937 0.03894531 5.00640625 0.05054688 5.875 0.0625 C2.75589144 1.85525866 0.19817572 2.40540718 -3.375 2.6875 C-4.26703125 2.76226562 -5.1590625 2.83703125 -6.078125 2.9140625 C-6.75359375 2.96304687 -7.4290625 3.01203125 -8.125 3.0625 C-8.125 2.4025 -8.125 1.7425 -8.125 1.0625 C-5.36047967 -0.31976016 -3.0788637 -0.03275387 0 0 Z " fill="#454545" transform="translate(202.125,414.9375)"/>
<path d="M0 0 C0.66 0 1.32 0 2 0 C2.66666667 2.66666667 3.33333333 5.33333333 4 8 C2.02 6.35 0.04 4.7 -2 3 C-1.34 2.01 -0.68 1.02 0 0 Z " fill="#1B1B1B" transform="translate(565,156)"/>
<path d="M0 0 C0.66 0.99 1.32 1.98 2 3 C1.01 4.98 0.02 6.96 -1 9 C-1.33 9 -1.66 9 -2 9 C-2.25 3.375 -2.25 3.375 0 0 Z " fill="#1C1C1C" transform="translate(570,578)"/>
<path d="M0 0 C1.9375 0.625 1.9375 0.625 4 2 C4.75 5.125 4.75 5.125 5 8 C4.34 8 3.68 8 3 8 C0 2.25 0 2.25 0 0 Z " fill="#202020" transform="translate(466,498)"/>
<path d="M0 0 C2.4375 0.625 2.4375 0.625 5 2 C5.8125 5.125 5.8125 5.125 6 8 C1.125 3.375 1.125 3.375 0 0 Z " fill="#1D1D1D" transform="translate(592,191)"/>
<path d="M0 0 C1.43739513 -0.02712066 2.87493863 -0.04645067 4.3125 -0.0625 C5.51326172 -0.07990234 5.51326172 -0.07990234 6.73828125 -0.09765625 C9 0 9 0 12 1 C12 1.66 12 2.32 12 3 C11.319375 2.855625 10.63875 2.71125 9.9375 2.5625 C6.63726918 1.93054091 3.32855574 1.45686059 0 1 C0 0.67 0 0.34 0 0 Z " fill="#050504" transform="translate(394,687)"/>
<path d="M0 0 C0.66 0.33 1.32 0.66 2 1 C1.67 1.99 1.34 2.98 1 4 C-1.64 4.33 -4.28 4.66 -7 5 C-5.47058649 1.94117299 -3.05780454 1.31048766 0 0 Z " fill="#454545" transform="translate(790,652)"/>
<path d="M0 0 C0.66 0.33 1.32 0.66 2 1 C1.34 2.32 0.68 3.64 0 5 C-1.65 4.67 -3.3 4.34 -5 4 C-3.36587557 2.29159719 -2.13093906 1.06546953 0 0 Z " fill="#2F2F2F" transform="translate(797,648)"/>
<path d="M0 0 C1.65 1.65 3.3 3.3 5 5 C3.68 5.33 2.36 5.66 1 6 C-0.0625 4.125 -0.0625 4.125 -1 2 C-0.67 1.34 -0.34 0.68 0 0 Z " fill="#191919" transform="translate(200,627)"/>
<path d="M0 0 C1.32 0 2.64 0 4 0 C4.33 2.64 4.66 5.28 5 8 C2.98863724 5.44008376 1.37154504 2.95409701 0 0 Z " fill="#1B1B1B" transform="translate(465,607)"/>
<path d="M0 0 C1.43088528 2.86177057 0.59991697 4.93375773 0 8 C-1.32 8.33 -2.64 8.66 -4 9 C-2.80100302 5.9168649 -1.52299523 2.93720508 0 0 Z " fill="#3E3E3E" transform="translate(617,386)"/>
<path d="M0 0 C0.33 0.66 0.66 1.32 1 2 C1.66 2 2.32 2 3 2 C3 2.66 3 3.32 3 4 C0.69 4.33 -1.62 4.66 -4 5 C-3.67 4.34 -3.34 3.68 -3 3 C-2.34 3 -1.68 3 -1 3 C-0.67 2.01 -0.34 1.02 0 0 Z " fill="#313131" transform="translate(546,867)"/>
<path d="M0 0 C0.99 0.495 0.99 0.495 2 1 C3.1577506 4.47325181 3.06866652 7.36067448 3 11 C2.67 11 2.34 11 2 11 C0.57741188 7.17679443 -0.24042276 4.08718695 0 0 Z " fill="#060606" transform="translate(555,798)"/>
<path d="M0 0 C0.99 0.495 0.99 0.495 2 1 C2.625 4.0625 2.625 4.0625 3 7 C3.66 7 4.32 7 5 7 C4.67 7.66 4.34 8.32 4 9 C3.01 8.67 2.02 8.34 1 8 C0 2.25 0 2.25 0 0 Z " fill="#3A3A3A" transform="translate(168,578)"/>
<path d="M0 0 C1 2 1 2 0.25 5.0625 C-0.1625 6.031875 -0.575 7.00125 -1 8 C-1.99 8.33 -2.98 8.66 -4 9 C-2.94124926 5.59687262 -1.99097846 2.98646769 0 0 Z " fill="#3E3E3E" transform="translate(569,472)"/>
<path d="M0 0 C-3.50538557 1.96301592 -7.13351728 2.95902388 -11 4 C-8.64216311 -0.71567378 -4.72624179 -1.48539028 0 0 Z " fill="#313131" transform="translate(713,414)"/>
<path d="M0 0 C4 1 4 1 6 4 C5.67 4.99 5.34 5.98 5 7 C3.35 4.69 1.7 2.38 0 0 Z " fill="#292929" transform="translate(581,178)"/>
</svg>
